<svg xmlns="http://www.w3.org/2000/svg" xmlns:xlink="http://www.w3.org/1999/xlink" viewBox="117.67 385.15 805.01 926.58">
  <path fill="url(#k)" d="M904.5373 712.7876c-7.1799 0-16.6277 3.5086-27.7757 8.319-16.4085 7.0804-36.1588 16.8183-55.9346 26.5692l-.0166.0079c-56.4807 26.3273-112.9843 52.6652-144.2057 67.0394-2.9988 1.3806-5.1532 2.3702-7.698 3.5392l-.5112.2347c-2.364 1.0856-4.009 1.8411-6.0848 2.7968-19.1018 8.7943-24.1345 11.3373-30.2009 16.5869-7.3851 6.3904-16.272 16.7773-20.3414 35.1756-4.086 18.4734-3.325 45.0141-2.5547 71.6985l.0004.0202v-.0024l1.639 365.3537a.2026.2026 0 0 0 .2028.2019l.0004.001a.22.22 0 0 0 .0855-.02l-.0021.001c99.649-45.2051 199.0183-90.2796 250.8667-113.1758 5.2688-2.3267 9.2359-4.0684 13.6577-6.01l.0001.001.0983-.0442-.0001.001.1863-.0828.0001.001.1854-.0826c3.1585-1.3869 6.616-2.906 9.2663-4.0764 30.143-13.3112 32.6678-15.3147 34.1772-24.748 1.9138-11.961 1.742-35.374 1.5667-58.9102v-.0132l.0002-.0227-.0096.001a.22.22 0 0 0 .0101-.063c.9419-116.7774 1.883-233.4628 1.4159-299.911-.469-66.7233-2.4229-82.276-9.5435-87.838-2.2548-1.7612-5.0831-2.5487-8.4802-2.5487"/>
  <path fill="url(#g)" d="M136.1688 713.4888c-3.4518 0-6.3632.801-8.6958 2.623-7.2934 5.6969-9.21 21.5214-9.678 88.1113-.4667 66.4295.4747 183.1612 1.4164 299.9154a.6.6 0 0 0 .0015.0369l-.0012.001v.0044l.0004.0406v.0131c-.1751 23.5159-.3484 46.9669 1.5712 58.9639 1.5455 9.6589 4.302 11.7297 34.3814 25.0128 2.8473 1.2574 6.0651 2.6706 9.437 4.1515l.0002.0009.2016.0876-.0003-.0002.26.1143.0003.0001.2596.1139-.0002.001c4.2633 1.8711 8.1493 3.5776 13.2357 5.8239 51.843 22.8939 151.2157 67.97 250.8623 113.1741a.553.553 0 0 0 .528-.0387.553.553 0 0 0 .2534-.4648v.0015l1.6393-365.3472.0004-.02v.001c.7698-26.6653 1.5343-53.2539-2.563-71.778-4.0888-18.4868-13.0248-28.9361-20.454-35.3648-6.1114-5.2884-11.1921-7.8504-30.2836-16.6401-2.1065-.9698-3.6908-1.6973-6.085-2.797v.001l-.4497-.2077-.0001.001-.4356-.2011v.001c-2.3747-1.0917-4.488-2.0626-7.3234-3.3679-31.2644-14.394-87.66-40.682-144.1818-67.0284l-.0187-.0087v.001l-.0184-.0099c-19.7713-9.7486-39.529-19.4903-55.9454-26.5741-11.1346-4.8047-20.6505-8.3476-27.9145-8.3476"/>
  <path fill="url(#l)" d="M558.6856 461.8527c-3.1148 0-5.6705.8543-7.6696 2.6964v.001c-7.9981 7.3691-7.6356 30.6663-7.17 56.4459l.0115.638c.036 1.9981.0714 3.9752.1028 5.9807.4252 27.1496.0667 55.0969-.0707 57.6946l-.0058.001a.3.3 0 0 0-.0042.052l.0033.0009a.3.3 0 0 0-.0031.0463l.0005.001a.3.3 0 0 0 .0054.0434l-.0058.001.0001.042.0021.001a.3.3 0 0 0-.002.0361c.0131 4.7119.0237 13.042.0236 27.2306l-.0006 6.1562c-.0116 59.298-.1882 204.08-.365 349.3071l-.0003.261a.336.336 0 0 0 .1979.3066l-.0058.001 49.5852 35.7899a.336.336 0 0 0 .3493.0266.336.336 0 0 0 .1827-.299v-.001l-.0009-.0249c-.9472-12.6995-1.9323-26.1068-3.6794-53.7275-1.8356-29.0195-4.5381-73.9761 4.3433-99.9132 8.0324-23.4578 25.5498-31.3833 68.2417-50.641l.4262-.1923c4.6624-2.1032 9.8661-4.451 15.173-6.8707 54.0056-24.6239 141.6385-67.0489 229.4467-109.567l-.0094.001a.338.338 0 0 0 .2463-.2485.336.336 0 0 0-.1437-.3602l-.231-.1497-.0001.001c-72.7381-47.1334-145.3147-94.1659-196.8786-128.2253-23.3766-15.4409-42.4675-28.2375-58.6171-39.063v.0001l-.0161-.0108v-.0001c-11.8827-7.965-22.2387-14.9068-31.5464-21.0547-6.1321-4.0505-11.8308-7.7709-17.2569-11.2432-19.0417-12.1852-34.5313-21.1703-44.6591-21.1703"/>
  <path fill="url(#j)" d="M447.422 1004.6354h-.0001Zm34.8262-542.7834c-10.1255 0-25.6132 8.9835-44.6558 21.1694-5.4268 3.4727-11.1239 7.1922-17.2568 11.2431-9.3171 6.1543-19.629 13.0665-31.5162 21.0347v.001l-.0298.019-.0003.0001c-16.147 10.8236-35.2552 23.632-58.6334 39.074-51.5522 34.0516-124.1523 81.0996-196.8785 128.2244l-.0008.0005-.2261.1475-.0002.001a.1.1 0 0 0-.0137.0085l-.0014.0009a.3294.3294 0 0 0 .0842.577l-.0013.001c87.8216 42.5248 175.451 84.9484 229.467 109.577 5.3313 2.4308 10.4861 4.7563 15.173 6.8706l.4258.1921.482.2174c42.3415 19.1 59.7602 27.0557 67.7633 50.4278 8.8819 25.9384 6.1792 70.8964 4.3437 99.9153-1.7465 27.6118-2.7328 41.0352-3.6794 53.7273a.329.329 0 0 0 .1677.3119l-.002.001a.34.34 0 0 0 .1629.042c.0713 0 .138-.023.1926-.0634v.001l49.633-35.8239.0036.001a.333.333 0 0 0 .1379-.2695c-.1768-145.1738-.3535-290.3731-.365-349.5674v-.0001l-.0007-6.1561c0-14.0096.0105-22.4416.0233-27.1133l-.005.001a.34.34 0 0 0 .0091-.109l-.005.0009a.34.34 0 0 0 .0022-.0848l-.005.001a.34.34 0 0 0 .0044-.0538l.0001-.024v-.0234a.33.33 0 0 0-.0055-.0608l-.005.001c-.1378-2.6617-.4947-30.57-.07-57.6849v-.0001c.0343-2.1935.0743-4.403.1135-6.578l.0008-.0408c.4656-25.7818.8274-49.0748-7.1679-56.4424v.001c-1.9977-1.8418-4.5518-2.6957-7.6653-2.6957"/>
  <path fill="url(#m)" d="m521.5267 385.1487-.0998.0987c-1.8303 168.5814-3.4143 307.1762-5.4776 420.5968-1.9353 106.3918-4.3625 194.7592-17.2962 237.7243-11.8388 39.3275-33.9726 45.922-55.9367 51.9309a.0997.0997 0 0 0 .0263.1958l-.0102.001c7.1893 2.2927 14.3287 4.5913 21.1892 7.2595 16.4191 6.3854 31.1017 14.8312 40.3377 30.0096 12.0693 19.8357 14.374 50.2691 16.0504 79.4466l.0994.094.0997-.0939c1.7551-29.1825 4.1423-59.6239 16.2642-79.4973 9.2747-15.2064 23.974-23.6949 40.4003-30.1275 6.865-2.6883 14.0077-5.0082 21.199-7.3215l-.0001.001a.1016.1016 0 0 0 .0833-.0944.0995.0995 0 0 0-.0734-.1012c-21.9296-5.9411-44.034-12.4692-55.7623-51.759-12.815-42.9296-15.0023-131.2879-16.6495-237.6727-1.7562-113.4164-2.9644-252.0096-4.3378-420.5917l-.0996-.099Z"/>
  <defs>
    <linearGradient id="j" x1="480" x2="351.9999" y1="928.0001" y2="448" gradientUnits="userSpaceOnUse">
      <stop offset="0%" stop-color="#00bce9" stop-opacity="0"/>
      <stop offset="100%" stop-color="#34a8ff"/>
    </linearGradient>
    <linearGradient id="g" x1="224" x2="379.1933" y1="1152" y2="762.861" gradientUnits="userSpaceOnUse">
      <stop offset="0%" stop-color="#00bce9" stop-opacity="0"/>
      <stop offset="100%" stop-color="#34a8ff"/>
    </linearGradient>
    <linearGradient id="l" x1="568.9334" x2="696.9336" y1="960.0067" y2="448.0071" gradientUnits="userSpaceOnUse">
      <stop offset="0%" stop-color="#00bce9" stop-opacity="0"/>
      <stop offset="100%" stop-color="#34a8ff"/>
    </linearGradient>
    <linearGradient id="k" x1="824.7063" x2="664.7056" y1="1150.9501" y2="766.9484" gradientUnits="userSpaceOnUse">
      <stop offset="0%" stop-color="#00bce9" stop-opacity="0"/>
      <stop offset="100%" stop-color="#34a8ff"/>
    </linearGradient>
    <linearGradient id="m" x1="522.001" x2="521.0578" y1="327.1194" y2="1239.401" gradientUnits="userSpaceOnUse">
      <stop offset="0%" stop-color="#00bce9" stop-opacity="0"/>
      <stop offset="100%" stop-color="#34a8ff"/>
    </linearGradient>
  </defs>
</svg>
